solid belt_tensionner_mobil
   facet normal 0.000000e+000 -1.000000e+000 0.000000e+000
      outer loop
         vertex 5.250000e+000 0.000000e+000 2.157752e+000
         vertex 5.250000e+000 0.000000e+000 0.000000e+000
         vertex 1.000000e+001 0.000000e+000 0.000000e+000
      endloop
   endfacet
   facet normal 0.000000e+000 -1.000000e+000 0.000000e+000
      outer loop
         vertex 5.250000e+000 0.000000e+000 5.454963e+000
         vertex 4.050000e+000 0.000000e+000 5.018198e+000
         vertex 4.050000e+000 0.000000e+000 2.594516e+000
      endloop
   endfacet
   facet normal 0.000000e+000 -1.000000e+000 0.000000e+000
      outer loop
         vertex 4.050000e+000 0.000000e+000 2.594516e+000
         vertex 5.250000e+000 0.000000e+000 2.157752e+000
         vertex 5.250000e+000 0.000000e+000 5.454963e+000
      endloop
   endfacet
   facet normal 0.000000e+000 -1.000000e+000 0.000000e+000
      outer loop
         vertex 5.250000e+000 0.000000e+000 5.454963e+000
         vertex 5.250000e+000 0.000000e+000 2.157752e+000
         vertex 1.000000e+001 0.000000e+000 0.000000e+000
      endloop
   endfacet
   facet normal 0.000000e+000 -1.000000e+000 0.000000e+000
      outer loop
         vertex 5.250000e+000 0.000000e+000 5.454963e+000
         vertex 1.000000e+001 0.000000e+000 0.000000e+000
         vertex 5.250000e+000 0.000000e+000 7.157752e+000
      endloop
   endfacet
   facet normal 0.000000e+000 -1.000000e+000 0.000000e+000
      outer loop
         vertex 5.250000e+000 0.000000e+000 7.157752e+000
         vertex 1.000000e+001 0.000000e+000 0.000000e+000
         vertex 1.000000e+001 0.000000e+000 1.000000e+001
      endloop
   endfacet
   facet normal 0.000000e+000 -1.000000e+000 0.000000e+000
      outer loop
         vertex 5.250000e+000 0.000000e+000 7.157752e+000
         vertex 1.000000e+001 0.000000e+000 1.000000e+001
         vertex 4.050000e+000 0.000000e+000 7.594516e+000
      endloop
   endfacet
   facet normal 0.000000e+000 -1.000000e+000 0.000000e+000
      outer loop
         vertex 4.050000e+000 0.000000e+000 7.594516e+000
         vertex 1.000000e+001 0.000000e+000 1.000000e+001
         vertex 4.050000e+000 0.000000e+000 1.000000e+001
      endloop
   endfacet
   facet normal 9.983119e-001 5.807913e-002 0.000000e+000
      outer loop
         vertex 3.522789e+000 1.973953e+001 8.000000e+000
         vertex 3.500000e+000 2.000000e+001 0.000000e+000
         vertex 3.500000e+000 2.000000e+001 8.000000e+000
      endloop
   endfacet
   facet normal 9.983119e-001 -5.807913e-002 0.000000e+000
      outer loop
         vertex 3.500000e+000 2.000000e+001 8.000000e+000
         vertex 3.500000e+000 2.000000e+001 0.000000e+000
         vertex 3.522789e+000 2.026047e+001 0.000000e+000
      endloop
   endfacet
   facet normal 9.932307e-001 -1.161583e-001 0.000000e+000
      outer loop
         vertex 3.500000e+000 2.000000e+001 8.000000e+000
         vertex 3.522789e+000 2.026047e+001 0.000000e+000
         vertex 3.522789e+000 2.026047e+001 8.000000e+000
      endloop
   endfacet
   facet normal 9.730600e-001 -2.305519e-001 0.000000e+000
      outer loop
         vertex 3.522789e+000 2.026047e+001 8.000000e+000
         vertex 3.522789e+000 2.026047e+001 0.000000e+000
         vertex 3.590461e+000 2.051303e+001 0.000000e+000
      endloop
   endfacet
   facet normal 9.579706e-001 -2.868663e-001 0.000000e+000
      outer loop
         vertex 3.522789e+000 2.026047e+001 8.000000e+000
         vertex 3.590461e+000 2.051303e+001 0.000000e+000
         vertex 3.590461e+000 2.051303e+001 8.000000e+000
      endloop
   endfacet
   facet normal 9.182422e-001 -3.960194e-001 0.000000e+000
      outer loop
         vertex 3.590461e+000 2.051303e+001 8.000000e+000
         vertex 3.590461e+000 2.051303e+001 0.000000e+000
         vertex 3.700962e+000 2.075000e+001 0.000000e+000
      endloop
   endfacet
   facet normal 8.936031e-001 -4.488580e-001 0.000000e+000
      outer loop
         vertex 3.590461e+000 2.051303e+001 8.000000e+000
         vertex 3.700962e+000 2.075000e+001 0.000000e+000
         vertex 3.700962e+000 2.075000e+001 8.000000e+000
      endloop
   endfacet
   facet normal 8.355240e-001 -5.494540e-001 0.000000e+000
      outer loop
         vertex 3.700962e+000 2.075000e+001 8.000000e+000
         vertex 3.700962e+000 2.075000e+001 0.000000e+000
         vertex 3.850933e+000 2.096418e+001 0.000000e+000
      endloop
   endfacet
   facet normal 8.020838e-001 -5.972114e-001 0.000000e+000
      outer loop
         vertex 3.700962e+000 2.075000e+001 8.000000e+000
         vertex 3.850933e+000 2.096418e+001 0.000000e+000
         vertex 3.850933e+000 2.096418e+001 8.000000e+000
      endloop
   endfacet
   facet normal 7.274188e-001 -6.861938e-001 0.000000e+000
      outer loop
         vertex 3.850933e+000 2.096418e+001 8.000000e+000
         vertex 3.850933e+000 2.096418e+001 0.000000e+000
         vertex 4.035819e+000 2.114907e+001 0.000000e+000
      endloop
   endfacet
   facet normal 6.861938e-001 -7.274188e-001 0.000000e+000
      outer loop
         vertex 3.850933e+000 2.096418e+001 8.000000e+000
         vertex 4.035819e+000 2.114907e+001 0.000000e+000
         vertex 4.035819e+000 2.114907e+001 8.000000e+000
      endloop
   endfacet
   facet normal 5.972114e-001 -8.020838e-001 0.000000e+000
      outer loop
         vertex 4.035819e+000 2.114907e+001 8.000000e+000
         vertex 4.035819e+000 2.114907e+001 0.000000e+000
         vertex 4.250000e+000 2.129904e+001 0.000000e+000
      endloop
   endfacet
   facet normal 5.494540e-001 -8.355240e-001 0.000000e+000
      outer loop
         vertex 4.035819e+000 2.114907e+001 8.000000e+000
         vertex 4.250000e+000 2.129904e+001 0.000000e+000
         vertex 4.250000e+000 2.129904e+001 8.000000e+000
      endloop
   endfacet
   facet normal 4.488580e-001 -8.936031e-001 0.000000e+000
      outer loop
         vertex 4.250000e+000 2.129904e+001 8.000000e+000
         vertex 4.250000e+000 2.129904e+001 0.000000e+000
         vertex 4.486969e+000 2.140954e+001 0.000000e+000
      endloop
   endfacet
   facet normal 3.960194e-001 -9.182422e-001 0.000000e+000
      outer loop
         vertex 4.250000e+000 2.129904e+001 8.000000e+000
         vertex 4.486969e+000 2.140954e+001 0.000000e+000
         vertex 4.486969e+000 2.140954e+001 8.000000e+000
      endloop
   endfacet
   facet normal 2.868663e-001 -9.579706e-001 0.000000e+000
      outer loop
         vertex 4.486969e+000 2.140954e+001 8.000000e+000
         vertex 4.486969e+000 2.140954e+001 0.000000e+000
         vertex 4.739528e+000 2.147721e+001 0.000000e+000
      endloop
   endfacet
   facet normal 2.305519e-001 -9.730600e-001 0.000000e+000
      outer loop
         vertex 4.486969e+000 2.140954e+001 8.000000e+000
         vertex 4.739528e+000 2.147721e+001 0.000000e+000
         vertex 4.739528e+000 2.147721e+001 8.000000e+000
      endloop
   endfacet
   facet normal 1.161583e-001 -9.932307e-001 0.000000e+000
      outer loop
         vertex 4.739528e+000 2.147721e+001 8.000000e+000
         vertex 4.739528e+000 2.147721e+001 0.000000e+000
         vertex 5.000000e+000 2.150000e+001 0.000000e+000
      endloop
   endfacet
   facet normal 5.807913e-002 -9.983119e-001 0.000000e+000
      outer loop
         vertex 4.739528e+000 2.147721e+001 8.000000e+000
         vertex 5.000000e+000 2.150000e+001 0.000000e+000
         vertex 5.000000e+000 2.150000e+001 8.000000e+000
      endloop
   endfacet
   facet normal -5.807913e-002 -9.983119e-001 0.000000e+000
      outer loop
         vertex 5.000000e+000 2.150000e+001 8.000000e+000
         vertex 5.000000e+000 2.150000e+001 0.000000e+000
         vertex 5.260472e+000 2.147721e+001 0.000000e+000
      endloop
   endfacet
   facet normal -1.161583e-001 -9.932307e-001 0.000000e+000
      outer loop
         vertex 5.000000e+000 2.150000e+001 8.000000e+000
         vertex 5.260472e+000 2.147721e+001 0.000000e+000
         vertex 5.260472e+000 2.147721e+001 8.000000e+000
      endloop
   endfacet
   facet normal -2.305519e-001 -9.730600e-001 0.000000e+000
      outer loop
         vertex 5.260472e+000 2.147721e+001 8.000000e+000
         vertex 5.260472e+000 2.147721e+001 0.000000e+000
         vertex 5.513030e+000 2.140954e+001 0.000000e+000
      endloop
   endfacet
   facet normal -2.868663e-001 -9.579706e-001 0.000000e+000
      outer loop
         vertex 5.260472e+000 2.147721e+001 8.000000e+000
         vertex 5.513030e+000 2.140954e+001 0.000000e+000
         vertex 5.513030e+000 2.140954e+001 8.000000e+000
      endloop
   endfacet
   facet normal -3.960194e-001 -9.182422e-001 0.000000e+000
      outer loop
         vertex 5.513030e+000 2.140954e+001 8.000000e+000
         vertex 5.513030e+000 2.140954e+001 0.000000e+000
         vertex 5.750000e+000 2.129904e+001 0.000000e+000
      endloop
   endfacet
   facet normal -4.488580e-001 -8.936031e-001 0.000000e+000
      outer loop
         vertex 5.513030e+000 2.140954e+001 8.000000e+000
         vertex 5.750000e+000 2.129904e+001 0.000000e+000
         vertex 5.750000e+000 2.129904e+001 8.000000e+000
      endloop
   endfacet
   facet normal -5.494540e-001 -8.355240e-001 0.000000e+000
      outer loop
         vertex 5.750000e+000 2.129904e+001 8.000000e+000
         vertex 5.750000e+000 2.129904e+001 0.000000e+000
         vertex 5.964181e+000 2.114907e+001 0.000000e+000
      endloop
   endfacet
   facet normal -5.972114e-001 -8.020838e-001 0.000000e+000
      outer loop
         vertex 5.750000e+000 2.129904e+001 8.000000e+000
         vertex 5.964181e+000 2.114907e+001 0.000000e+000
         vertex 5.964181e+000 2.114907e+001 8.000000e+000
      endloop
   endfacet
   facet normal -6.861938e-001 -7.274188e-001 0.000000e+000
      outer loop
         vertex 5.964181e+000 2.114907e+001 8.000000e+000
         vertex 5.964181e+000 2.114907e+001 0.000000e+000
         vertex 6.149066e+000 2.096418e+001 0.000000e+000
      endloop
   endfacet
   facet normal -7.274188e-001 -6.861938e-001 0.000000e+000
      outer loop
         vertex 5.964181e+000 2.114907e+001 8.000000e+000
         vertex 6.149066e+000 2.096418e+001 0.000000e+000
         vertex 6.149066e+000 2.096418e+001 8.000000e+000
      endloop
   endfacet
   facet normal -8.020838e-001 -5.972114e-001 0.000000e+000
      outer loop
         vertex 6.149066e+000 2.096418e+001 8.000000e+000
         vertex 6.149066e+000 2.096418e+001 0.000000e+000
         vertex 6.299038e+000 2.075000e+001 0.000000e+000
      endloop
   endfacet
   facet normal -8.355240e-001 -5.494540e-001 0.000000e+000
      outer loop
         vertex 6.149066e+000 2.096418e+001 8.000000e+000
         vertex 6.299038e+000 2.075000e+001 0.000000e+000
         vertex 6.299038e+000 2.075000e+001 8.000000e+000
      endloop
   endfacet
   facet normal -8.936031e-001 -4.488580e-001 0.000000e+000
      outer loop
         vertex 6.299038e+000 2.075000e+001 8.000000e+000
         vertex 6.299038e+000 2.075000e+001 0.000000e+000
         vertex 6.409539e+000 2.051303e+001 0.000000e+000
      endloop
   endfacet
   facet normal -9.182422e-001 -3.960194e-001 0.000000e+000
      outer loop
         vertex 6.299038e+000 2.075000e+001 8.000000e+000
         vertex 6.409539e+000 2.051303e+001 0.000000e+000
         vertex 6.409539e+000 2.051303e+001 8.000000e+000
      endloop
   endfacet
   facet normal -9.579706e-001 -2.868663e-001 0.000000e+000
      outer loop
         vertex 6.409539e+000 2.051303e+001 8.000000e+000
         vertex 6.409539e+000 2.051303e+001 0.000000e+000
         vertex 6.477211e+000 2.026047e+001 0.000000e+000
      endloop
   endfacet
   facet normal -9.730600e-001 -2.305519e-001 0.000000e+000
      outer loop
         vertex 6.409539e+000 2.051303e+001 8.000000e+000
         vertex 6.477211e+000 2.026047e+001 0.000000e+000
         vertex 6.477211e+000 2.026047e+001 8.000000e+000
      endloop
   endfacet
   facet normal -9.932307e-001 -1.161583e-001 0.000000e+000
      outer loop
         vertex 6.477211e+000 2.026047e+001 8.000000e+000
         vertex 6.477211e+000 2.026047e+001 0.000000e+000
         vertex 6.500000e+000 2.000000e+001 0.000000e+000
      endloop
   endfacet
   facet normal -9.983119e-001 -5.807913e-002 0.000000e+000
      outer loop
         vertex 6.477211e+000 2.026047e+001 8.000000e+000
         vertex 6.500000e+000 2.000000e+001 0.000000e+000
         vertex 6.500000e+000 2.000000e+001 8.000000e+000
      endloop
   endfacet
   facet normal -9.983119e-001 5.807913e-002 0.000000e+000
      outer loop
         vertex 6.500000e+000 2.000000e+001 8.000000e+000
         vertex 6.500000e+000 2.000000e+001 0.000000e+000
         vertex 6.477211e+000 1.973953e+001 0.000000e+000
      endloop
   endfacet
   facet normal -9.932307e-001 1.161583e-001 0.000000e+000
      outer loop
         vertex 6.500000e+000 2.000000e+001 8.000000e+000
         vertex 6.477211e+000 1.973953e+001 0.000000e+000
         vertex 6.477211e+000 1.973953e+001 8.000000e+000
      endloop
   endfacet
   facet normal -9.730600e-001 2.305519e-001 0.000000e+000
      outer loop
         vertex 6.477211e+000 1.973953e+001 8.000000e+000
         vertex 6.477211e+000 1.973953e+001 0.000000e+000
         vertex 6.409539e+000 1.948697e+001 0.000000e+000
      endloop
   endfacet
   facet normal -9.579706e-001 2.868663e-001 0.000000e+000
      outer loop
         vertex 6.477211e+000 1.973953e+001 8.000000e+000
         vertex 6.409539e+000 1.948697e+001 0.000000e+000
         vertex 6.409539e+000 1.948697e+001 8.000000e+000
      endloop
   endfacet
   facet normal -9.182422e-001 3.960194e-001 0.000000e+000
      outer loop
         vertex 6.409539e+000 1.948697e+001 8.000000e+000
         vertex 6.409539e+000 1.948697e+001 0.000000e+000
         vertex 6.299038e+000 1.925000e+001 0.000000e+000
      endloop
   endfacet
   facet normal -8.936031e-001 4.488580e-001 0.000000e+000
      outer loop
         vertex 6.409539e+000 1.948697e+001 8.000000e+000
         vertex 6.299038e+000 1.925000e+001 0.000000e+000
         vertex 6.299038e+000 1.925000e+001 8.000000e+000
      endloop
   endfacet
   facet normal -8.355240e-001 5.494540e-001 0.000000e+000
      outer loop
         vertex 6.299038e+000 1.925000e+001 8.000000e+000
         vertex 6.299038e+000 1.925000e+001 0.000000e+000
         vertex 6.149066e+000 1.903582e+001 0.000000e+000
      endloop
   endfacet
   facet normal -8.020838e-001 5.972114e-001 0.000000e+000
      outer loop
         vertex 6.299038e+000 1.925000e+001 8.000000e+000
         vertex 6.149066e+000 1.903582e+001 0.000000e+000
         vertex 6.149066e+000 1.903582e+001 8.000000e+000
      endloop
   endfacet
   facet normal -7.274188e-001 6.861938e-001 0.000000e+000
      outer loop
         vertex 6.149066e+000 1.903582e+001 8.000000e+000
         vertex 6.149066e+000 1.903582e+001 0.000000e+000
         vertex 5.964181e+000 1.885093e+001 0.000000e+000
      endloop
   endfacet
   facet normal -6.861938e-001 7.274188e-001 0.000000e+000
      outer loop
         vertex 6.149066e+000 1.903582e+001 8.000000e+000
         vertex 5.964181e+000 1.885093e+001 0.000000e+000
         vertex 5.964181e+000 1.885093e+001 8.000000e+000
      endloop
   endfacet
   facet normal -5.972114e-001 8.020838e-001 0.000000e+000
      outer loop
         vertex 5.964181e+000 1.885093e+001 8.000000e+000
         vertex 5.964181e+000 1.885093e+001 0.000000e+000
         vertex 5.750000e+000 1.870096e+001 0.000000e+000
      endloop
   endfacet
   facet normal -5.494540e-001 8.355240e-001 0.000000e+000
      outer loop
         vertex 5.964181e+000 1.885093e+001 8.000000e+000
         vertex 5.750000e+000 1.870096e+001 0.000000e+000
         vertex 5.750000e+000 1.870096e+001 8.000000e+000
      endloop
   endfacet
   facet normal -4.488580e-001 8.936031e-001 0.000000e+000
      outer loop
         vertex 5.750000e+000 1.870096e+001 8.000000e+000
         vertex 5.750000e+000 1.870096e+001 0.000000e+000
         vertex 5.513030e+000 1.859046e+001 0.000000e+000
      endloop
   endfacet
   facet normal -3.960194e-001 9.182422e-001 0.000000e+000
      outer loop
         vertex 5.750000e+000 1.870096e+001 8.000000e+000
         vertex 5.513030e+000 1.859046e+001 0.000000e+000
         vertex 5.513030e+000 1.859046e+001 8.000000e+000
      endloop
   endfacet
   facet normal -2.868663e-001 9.579706e-001 0.000000e+000
      outer loop
         vertex 5.513030e+000 1.859046e+001 8.000000e+000
         vertex 5.513030e+000 1.859046e+001 0.000000e+000
         vertex 5.260472e+000 1.852279e+001 0.000000e+000
      endloop
   endfacet
   facet normal -2.305519e-001 9.730600e-001 0.000000e+000
      outer loop
         vertex 5.513030e+000 1.859046e+001 8.000000e+000
         vertex 5.260472e+000 1.852279e+001 0.000000e+000
         vertex 5.260472e+000 1.852279e+001 8.000000e+000
      endloop
   endfacet
   facet normal -1.161583e-001 9.932307e-001 0.000000e+000
      outer loop
         vertex 5.260472e+000 1.852279e+001 8.000000e+000
         vertex 5.260472e+000 1.852279e+001 0.000000e+000
         vertex 5.000000e+000 1.850000e+001 0.000000e+000
      endloop
   endfacet
   facet normal -5.807913e-002 9.983119e-001 0.000000e+000
      outer loop
         vertex 5.260472e+000 1.852279e+001 8.000000e+000
         vertex 5.000000e+000 1.850000e+001 0.000000e+000
         vertex 5.000000e+000 1.850000e+001 8.000000e+000
      endloop
   endfacet
   facet normal 5.807913e-002 9.983119e-001 0.000000e+000
      outer loop
         vertex 5.000000e+000 1.850000e+001 8.000000e+000
         vertex 5.000000e+000 1.850000e+001 0.000000e+000
         vertex 4.739528e+000 1.852279e+001 0.000000e+000
      endloop
   endfacet
   facet normal 1.161583e-001 9.932307e-001 0.000000e+000
      outer loop
         vertex 5.000000e+000 1.850000e+001 8.000000e+000
         vertex 4.739528e+000 1.852279e+001 0.000000e+000
         vertex 4.739528e+000 1.852279e+001 8.000000e+000
      endloop
   endfacet
   facet normal 2.305519e-001 9.730600e-001 0.000000e+000
      outer loop
         vertex 4.739528e+000 1.852279e+001 8.000000e+000
         vertex 4.739528e+000 1.852279e+001 0.000000e+000
         vertex 4.486969e+000 1.859046e+001 0.000000e+000
      endloop
   endfacet
   facet normal 2.868663e-001 9.579706e-001 0.000000e+000
      outer loop
         vertex 4.739528e+000 1.852279e+001 8.000000e+000
         vertex 4.486969e+000 1.859046e+001 0.000000e+000
         vertex 4.486969e+000 1.859046e+001 8.000000e+000
      endloop
   endfacet
   facet normal 3.960194e-001 9.182422e-001 0.000000e+000
      outer loop
         vertex 4.486969e+000 1.859046e+001 8.000000e+000
         vertex 4.486969e+000 1.859046e+001 0.000000e+000
         vertex 4.250000e+000 1.870096e+001 0.000000e+000
      endloop
   endfacet
   facet normal 4.488580e-001 8.936031e-001 0.000000e+000
      outer loop
         vertex 4.486969e+000 1.859046e+001 8.000000e+000
         vertex 4.250000e+000 1.870096e+001 0.000000e+000
         vertex 4.250000e+000 1.870096e+001 8.000000e+000
      endloop
   endfacet
   facet normal 5.494540e-001 8.355240e-001 0.000000e+000
      outer loop
         vertex 4.250000e+000 1.870096e+001 8.000000e+000
         vertex 4.250000e+000 1.870096e+001 0.000000e+000
         vertex 4.035819e+000 1.885093e+001 0.000000e+000
      endloop
   endfacet
   facet normal 5.972114e-001 8.020838e-001 0.000000e+000
      outer loop
         vertex 4.250000e+000 1.870096e+001 8.000000e+000
         vertex 4.035819e+000 1.885093e+001 0.000000e+000
         vertex 4.035819e+000 1.885093e+001 8.000000e+000
      endloop
   endfacet
   facet normal 6.861938e-001 7.274188e-001 0.000000e+000
      outer loop
         vertex 4.035819e+000 1.885093e+001 8.000000e+000
         vertex 4.035819e+000 1.885093e+001 0.000000e+000
         vertex 3.850933e+000 1.903582e+001 0.000000e+000
      endloop
   endfacet
   facet normal 7.274188e-001 6.861938e-001 0.000000e+000
      outer loop
         vertex 4.035819e+000 1.885093e+001 8.000000e+000
         vertex 3.850933e+000 1.903582e+001 0.000000e+000
         vertex 3.850933e+000 1.903582e+001 8.000000e+000
      endloop
   endfacet
   facet normal 8.020838e-001 5.972114e-001 0.000000e+000
      outer loop
         vertex 3.850933e+000 1.903582e+001 8.000000e+000
         vertex 3.850933e+000 1.903582e+001 0.000000e+000
         vertex 3.700962e+000 1.925000e+001 0.000000e+000
      endloop
   endfacet
   facet normal 8.355240e-001 5.494540e-001 0.000000e+000
      outer loop
         vertex 3.850933e+000 1.903582e+001 8.000000e+000
         vertex 3.700962e+000 1.925000e+001 0.000000e+000
         vertex 3.700962e+000 1.925000e+001 8.000000e+000
      endloop
   endfacet
   facet normal 8.936031e-001 4.488580e-001 0.000000e+000
      outer loop
         vertex 3.700962e+000 1.925000e+001 8.000000e+000
         vertex 3.700962e+000 1.925000e+001 0.000000e+000
         vertex 3.590461e+000 1.948697e+001 0.000000e+000
      endloop
   endfacet
   facet normal 9.182422e-001 3.960194e-001 0.000000e+000
      outer loop
         vertex 3.700962e+000 1.925000e+001 8.000000e+000
         vertex 3.590461e+000 1.948697e+001 0.000000e+000
         vertex 3.590461e+000 1.948697e+001 8.000000e+000
      endloop
   endfacet
   facet normal 9.579706e-001 2.868663e-001 0.000000e+000
      outer loop
         vertex 3.590461e+000 1.948697e+001 8.000000e+000
         vertex 3.590461e+000 1.948697e+001 0.000000e+000
         vertex 3.522789e+000 1.973953e+001 0.000000e+000
      endloop
   endfacet
   facet normal 9.730600e-001 2.305519e-001 0.000000e+000
      outer loop
         vertex 3.590461e+000 1.948697e+001 8.000000e+000
         vertex 3.522789e+000 1.973953e+001 0.000000e+000
         vertex 3.522789e+000 1.973953e+001 8.000000e+000
      endloop
   endfacet
   facet normal 9.932307e-001 1.161583e-001 0.000000e+000
      outer loop
         vertex 3.522789e+000 1.973953e+001 8.000000e+000
         vertex 3.522789e+000 1.973953e+001 0.000000e+000
         vertex 3.500000e+000 2.000000e+001 0.000000e+000
      endloop
   endfacet
   facet normal 0.000000e+000 0.000000e+000 1.000000e+000
      outer loop
         vertex 4.050000e+000 1.500000e+001 1.000000e+001
         vertex 4.050000e+000 0.000000e+000 1.000000e+001
         vertex 6.818654e+000 1.685000e+001 1.000000e+001
      endloop
   endfacet
   facet normal 0.000000e+000 0.000000e+000 1.000000e+000
      outer loop
         vertex 6.818654e+000 1.685000e+001 1.000000e+001
         vertex 4.050000e+000 0.000000e+000 1.000000e+001
         vertex 1.000000e+001 0.000000e+000 1.000000e+001
      endloop
   endfacet
   facet normal 0.000000e+000 0.000000e+000 1.000000e+000
      outer loop
         vertex 6.818654e+000 1.685000e+001 1.000000e+001
         vertex 1.000000e+001 0.000000e+000 1.000000e+001
         vertex 8.637306e+000 2.000000e+001 1.000000e+001
      endloop
   endfacet
   facet normal 0.000000e+000 0.000000e+000 1.000000e+000
      outer loop
         vertex 8.637306e+000 2.000000e+001 1.000000e+001
         vertex 1.000000e+001 0.000000e+000 1.000000e+001
         vertex 1.000000e+001 2.500000e+001 1.000000e+001
      endloop
   endfacet
   facet normal 0.000000e+000 0.000000e+000 1.000000e+000
      outer loop
         vertex 4.050000e+000 1.500000e+001 1.000000e+001
         vertex 6.818654e+000 1.685000e+001 1.000000e+001
         vertex 3.000000e+000 1.500000e+001 1.000000e+001
      endloop
   endfacet
   facet normal 0.000000e+000 0.000000e+000 1.000000e+000
      outer loop
         vertex 3.000000e+000 1.500000e+001 1.000000e+001
         vertex 6.818654e+000 1.685000e+001 1.000000e+001
         vertex 3.181347e+000 1.685000e+001 1.000000e+001
      endloop
   endfacet
   facet normal 0.000000e+000 0.000000e+000 1.000000e+000
      outer loop
         vertex 3.000000e+000 1.500000e+001 1.000000e+001
         vertex 3.181347e+000 1.685000e+001 1.000000e+001
         vertex 1.362693e+000 2.000000e+001 1.000000e+001
      endloop
   endfacet
   facet normal 0.000000e+000 0.000000e+000 1.000000e+000
      outer loop
         vertex 3.000000e+000 0.000000e+000 1.000000e+001
         vertex 3.000000e+000 1.500000e+001 1.000000e+001
         vertex 0.000000e+000 0.000000e+000 1.000000e+001
      endloop
   endfacet
   facet normal 0.000000e+000 0.000000e+000 1.000000e+000
      outer loop
         vertex 0.000000e+000 0.000000e+000 1.000000e+001
         vertex 3.000000e+000 1.500000e+001 1.000000e+001
         vertex 1.362693e+000 2.000000e+001 1.000000e+001
      endloop
   endfacet
   facet normal 0.000000e+000 0.000000e+000 1.000000e+000
      outer loop
         vertex 0.000000e+000 0.000000e+000 1.000000e+001
         vertex 1.362693e+000 2.000000e+001 1.000000e+001
         vertex 0.000000e+000 2.500000e+001 1.000000e+001
      endloop
   endfacet
   facet normal 0.000000e+000 0.000000e+000 1.000000e+000
      outer loop
         vertex 0.000000e+000 2.500000e+001 1.000000e+001
         vertex 1.362693e+000 2.000000e+001 1.000000e+001
         vertex 3.181347e+000 2.315000e+001 1.000000e+001
      endloop
   endfacet
   facet normal 0.000000e+000 0.000000e+000 1.000000e+000
      outer loop
         vertex 0.000000e+000 2.500000e+001 1.000000e+001
         vertex 3.181347e+000 2.315000e+001 1.000000e+001
         vertex 1.000000e+001 2.500000e+001 1.000000e+001
      endloop
   endfacet
   facet normal 0.000000e+000 0.000000e+000 1.000000e+000
      outer loop
         vertex 1.000000e+001 2.500000e+001 1.000000e+001
         vertex 3.181347e+000 2.315000e+001 1.000000e+001
         vertex 6.818654e+000 2.315000e+001 1.000000e+001
      endloop
   endfacet
   facet normal 0.000000e+000 0.000000e+000 1.000000e+000
      outer loop
         vertex 1.000000e+001 2.500000e+001 1.000000e+001
         vertex 6.818654e+000 2.315000e+001 1.000000e+001
         vertex 8.637306e+000 2.000000e+001 1.000000e+001
      endloop
   endfacet
   facet normal 0.000000e+000 0.000000e+000 -1.000000e+000
      outer loop
         vertex 1.000000e+001 0.000000e+000 0.000000e+000
         vertex 5.250000e+000 0.000000e+000 0.000000e+000
         vertex 1.000000e+001 2.500000e+001 0.000000e+000
      endloop
   endfacet
   facet normal 0.000000e+000 0.000000e+000 -1.000000e+000
      outer loop
         vertex 1.000000e+001 2.500000e+001 0.000000e+000
         vertex 5.250000e+000 0.000000e+000 0.000000e+000
         vertex 5.250000e+000 1.500000e+001 0.000000e+000
      endloop
   endfacet
   facet normal 0.000000e+000 0.000000e+000 -1.000000e+000
      outer loop
         vertex 3.000000e+000 0.000000e+000 0.000000e+000
         vertex 0.000000e+000 0.000000e+000 0.000000e+000
         vertex 3.000000e+000 1.500000e+001 0.000000e+000
      endloop
   endfacet
   facet normal 0.000000e+000 0.000000e+000 -1.000000e+000
      outer loop
         vertex 3.000000e+000 1.500000e+001 0.000000e+000
         vertex 0.000000e+000 0.000000e+000 0.000000e+000
         vertex 0.000000e+000 2.500000e+001 0.000000e+000
      endloop
   endfacet
   facet normal 0.000000e+000 0.000000e+000 -1.000000e+000
      outer loop
         vertex 3.700962e+000 1.925000e+001 0.000000e+000
         vertex 3.850933e+000 1.903582e+001 0.000000e+000
         vertex 3.000000e+000 1.500000e+001 0.000000e+000
      endloop
   endfacet
   facet normal 0.000000e+000 0.000000e+000 -1.000000e+000
      outer loop
         vertex 5.000000e+000 1.850000e+001 0.000000e+000
         vertex 5.250000e+000 1.500000e+001 0.000000e+000
         vertex 4.739528e+000 1.852279e+001 0.000000e+000
      endloop
   endfacet
   facet normal 0.000000e+000 0.000000e+000 -1.000000e+000
      outer loop
         vertex 4.739528e+000 1.852279e+001 0.000000e+000
         vertex 5.250000e+000 1.500000e+001 0.000000e+000
         vertex 3.000000e+000 1.500000e+001 0.000000e+000
      endloop
   endfacet
   facet normal 0.000000e+000 0.000000e+000 -1.000000e+000
      outer loop
         vertex 4.739528e+000 1.852279e+001 0.000000e+000
         vertex 3.000000e+000 1.500000e+001 0.000000e+000
         vertex 4.486969e+000 1.859046e+001 0.000000e+000
      endloop
   endfacet
   facet normal 0.000000e+000 0.000000e+000 -1.000000e+000
      outer loop
         vertex 3.850933e+000 1.903582e+001 0.000000e+000
         vertex 4.035819e+000 1.885093e+001 0.000000e+000
         vertex 3.000000e+000 1.500000e+001 0.000000e+000
      endloop
   endfacet
   facet normal 0.000000e+000 0.000000e+000 -1.000000e+000
      outer loop
         vertex 3.000000e+000 1.500000e+001 0.000000e+000
         vertex 4.035819e+000 1.885093e+001 0.000000e+000
         vertex 4.250000e+000 1.870096e+001 0.000000e+000
      endloop
   endfacet
   facet normal 0.000000e+000 0.000000e+000 -1.000000e+000
      outer loop
         vertex 3.000000e+000 1.500000e+001 0.000000e+000
         vertex 4.250000e+000 1.870096e+001 0.000000e+000
         vertex 4.486969e+000 1.859046e+001 0.000000e+000
      endloop
   endfacet
   facet normal 0.000000e+000 0.000000e+000 -1.000000e+000
      outer loop
         vertex 5.250000e+000 1.500000e+001 0.000000e+000
         vertex 5.750000e+000 1.870096e+001 0.000000e+000
         vertex 5.964181e+000 1.885093e+001 0.000000e+000
      endloop
   endfacet
   facet normal 0.000000e+000 0.000000e+000 -1.000000e+000
      outer loop
         vertex 4.486969e+000 2.140954e+001 0.000000e+000
         vertex 4.250000e+000 2.129904e+001 0.000000e+000
         vertex 0.000000e+000 2.500000e+001 0.000000e+000
      endloop
   endfacet
   facet normal 0.000000e+000 0.000000e+000 -1.000000e+000
      outer loop
         vertex 0.000000e+000 2.500000e+001 0.000000e+000
         vertex 4.250000e+000 2.129904e+001 0.000000e+000
         vertex 4.035819e+000 2.114907e+001 0.000000e+000
      endloop
   endfacet
   facet normal 0.000000e+000 0.000000e+000 -1.000000e+000
      outer loop
         vertex 0.000000e+000 2.500000e+001 0.000000e+000
         vertex 3.522789e+000 1.973953e+001 0.000000e+000
         vertex 3.000000e+000 1.500000e+001 0.000000e+000
      endloop
   endfacet
   facet normal 0.000000e+000 0.000000e+000 -1.000000e+000
      outer loop
         vertex 3.000000e+000 1.500000e+001 0.000000e+000
         vertex 3.522789e+000 1.973953e+001 0.000000e+000
         vertex 3.590461e+000 1.948697e+001 0.000000e+000
      endloop
   endfacet
   facet normal 0.000000e+000 0.000000e+000 -1.000000e+000
      outer loop
         vertex 3.000000e+000 1.500000e+001 0.000000e+000
         vertex 3.590461e+000 1.948697e+001 0.000000e+000
         vertex 3.700962e+000 1.925000e+001 0.000000e+000
      endloop
   endfacet
   facet normal 0.000000e+000 0.000000e+000 -1.000000e+000
      outer loop
         vertex 5.000000e+000 1.850000e+001 0.000000e+000
         vertex 5.260472e+000 1.852279e+001 0.000000e+000
         vertex 5.250000e+000 1.500000e+001 0.000000e+000
      endloop
   endfacet
   facet normal 0.000000e+000 0.000000e+000 -1.000000e+000
      outer loop
         vertex 5.250000e+000 1.500000e+001 0.000000e+000
         vertex 5.260472e+000 1.852279e+001 0.000000e+000
         vertex 5.513030e+000 1.859046e+001 0.000000e+000
      endloop
   endfacet
   facet normal 0.000000e+000 0.000000e+000 -1.000000e+000
      outer loop
         vertex 5.250000e+000 1.500000e+001 0.000000e+000
         vertex 5.513030e+000 1.859046e+001 0.000000e+000
         vertex 5.750000e+000 1.870096e+001 0.000000e+000
      endloop
   endfacet
   facet normal 0.000000e+000 0.000000e+000 -1.000000e+000
      outer loop
         vertex 6.477211e+000 1.973953e+001 0.000000e+000
         vertex 6.500000e+000 2.000000e+001 0.000000e+000
         vertex 1.000000e+001 2.500000e+001 0.000000e+000
      endloop
   endfacet
   facet normal 0.000000e+000 0.000000e+000 -1.000000e+000
      outer loop
         vertex 1.000000e+001 2.500000e+001 0.000000e+000
         vertex 6.500000e+000 2.000000e+001 0.000000e+000
         vertex 6.477211e+000 2.026047e+001 0.000000e+000
      endloop
   endfacet
   facet normal 0.000000e+000 0.000000e+000 -1.000000e+000
      outer loop
         vertex 4.035819e+000 2.114907e+001 0.000000e+000
         vertex 3.850933e+000 2.096418e+001 0.000000e+000
         vertex 0.000000e+000 2.500000e+001 0.000000e+000
      endloop
   endfacet
   facet normal 0.000000e+000 0.000000e+000 -1.000000e+000
      outer loop
         vertex 0.000000e+000 2.500000e+001 0.000000e+000
         vertex 3.850933e+000 2.096418e+001 0.000000e+000
         vertex 3.700962e+000 2.075000e+001 0.000000e+000
      endloop
   endfacet
   facet normal 0.000000e+000 0.000000e+000 -1.000000e+000
      outer loop
         vertex 0.000000e+000 2.500000e+001 0.000000e+000
         vertex 3.700962e+000 2.075000e+001 0.000000e+000
         vertex 3.590461e+000 2.051303e+001 0.000000e+000
      endloop
   endfacet
   facet normal 0.000000e+000 0.000000e+000 -1.000000e+000
      outer loop
         vertex 3.590461e+000 2.051303e+001 0.000000e+000
         vertex 3.522789e+000 2.026047e+001 0.000000e+000
         vertex 0.000000e+000 2.500000e+001 0.000000e+000
      endloop
   endfacet
   facet normal 0.000000e+000 0.000000e+000 -1.000000e+000
      outer loop
         vertex 0.000000e+000 2.500000e+001 0.000000e+000
         vertex 3.522789e+000 2.026047e+001 0.000000e+000
         vertex 3.500000e+000 2.000000e+001 0.000000e+000
      endloop
   endfacet
   facet normal 0.000000e+000 0.000000e+000 -1.000000e+000
      outer loop
         vertex 0.000000e+000 2.500000e+001 0.000000e+000
         vertex 3.500000e+000 2.000000e+001 0.000000e+000
         vertex 3.522789e+000 1.973953e+001 0.000000e+000
      endloop
   endfacet
   facet normal 0.000000e+000 0.000000e+000 -1.000000e+000
      outer loop
         vertex 5.964181e+000 1.885093e+001 0.000000e+000
         vertex 6.149066e+000 1.903582e+001 0.000000e+000
         vertex 5.250000e+000 1.500000e+001 0.000000e+000
      endloop
   endfacet
   facet normal 0.000000e+000 0.000000e+000 -1.000000e+000
      outer loop
         vertex 5.250000e+000 1.500000e+001 0.000000e+000
         vertex 6.149066e+000 1.903582e+001 0.000000e+000
         vertex 6.299038e+000 1.925000e+001 0.000000e+000
      endloop
   endfacet
   facet normal 0.000000e+000 0.000000e+000 -1.000000e+000
      outer loop
         vertex 5.250000e+000 1.500000e+001 0.000000e+000
         vertex 6.299038e+000 1.925000e+001 0.000000e+000
         vertex 1.000000e+001 2.500000e+001 0.000000e+000
      endloop
   endfacet
   facet normal 0.000000e+000 0.000000e+000 -1.000000e+000
      outer loop
         vertex 1.000000e+001 2.500000e+001 0.000000e+000
         vertex 6.299038e+000 1.925000e+001 0.000000e+000
         vertex 6.409539e+000 1.948697e+001 0.000000e+000
      endloop
   endfacet
   facet normal 0.000000e+000 0.000000e+000 -1.000000e+000
      outer loop
         vertex 1.000000e+001 2.500000e+001 0.000000e+000
         vertex 6.409539e+000 1.948697e+001 0.000000e+000
         vertex 6.477211e+000 1.973953e+001 0.000000e+000
      endloop
   endfacet
   facet normal 0.000000e+000 0.000000e+000 -1.000000e+000
      outer loop
         vertex 6.477211e+000 2.026047e+001 0.000000e+000
         vertex 6.409539e+000 2.051303e+001 0.000000e+000
         vertex 1.000000e+001 2.500000e+001 0.000000e+000
      endloop
   endfacet
   facet normal 0.000000e+000 0.000000e+000 -1.000000e+000
      outer loop
         vertex 1.000000e+001 2.500000e+001 0.000000e+000
         vertex 6.409539e+000 2.051303e+001 0.000000e+000
         vertex 6.299038e+000 2.075000e+001 0.000000e+000
      endloop
   endfacet
   facet normal 0.000000e+000 0.000000e+000 -1.000000e+000
      outer loop
         vertex 1.000000e+001 2.500000e+001 0.000000e+000
         vertex 6.299038e+000 2.075000e+001 0.000000e+000
         vertex 6.149066e+000 2.096418e+001 0.000000e+000
      endloop
   endfacet
   facet normal 0.000000e+000 0.000000e+000 -1.000000e+000
      outer loop
         vertex 6.149066e+000 2.096418e+001 0.000000e+000
         vertex 5.964181e+000 2.114907e+001 0.000000e+000
         vertex 1.000000e+001 2.500000e+001 0.000000e+000
      endloop
   endfacet
   facet normal 0.000000e+000 0.000000e+000 -1.000000e+000
      outer loop
         vertex 1.000000e+001 2.500000e+001 0.000000e+000
         vertex 5.964181e+000 2.114907e+001 0.000000e+000
         vertex 5.750000e+000 2.129904e+001 0.000000e+000
      endloop
   endfacet
   facet normal 0.000000e+000 0.000000e+000 -1.000000e+000
      outer loop
         vertex 1.000000e+001 2.500000e+001 0.000000e+000
         vertex 5.750000e+000 2.129904e+001 0.000000e+000
         vertex 5.513030e+000 2.140954e+001 0.000000e+000
      endloop
   endfacet
   facet normal 0.000000e+000 0.000000e+000 -1.000000e+000
      outer loop
         vertex 5.513030e+000 2.140954e+001 0.000000e+000
         vertex 5.260472e+000 2.147721e+001 0.000000e+000
         vertex 1.000000e+001 2.500000e+001 0.000000e+000
      endloop
   endfacet
   facet normal 0.000000e+000 0.000000e+000 -1.000000e+000
      outer loop
         vertex 1.000000e+001 2.500000e+001 0.000000e+000
         vertex 5.260472e+000 2.147721e+001 0.000000e+000
         vertex 5.000000e+000 2.150000e+001 0.000000e+000
      endloop
   endfacet
   facet normal 0.000000e+000 0.000000e+000 -1.000000e+000
      outer loop
         vertex 1.000000e+001 2.500000e+001 0.000000e+000
         vertex 5.000000e+000 2.150000e+001 0.000000e+000
         vertex 0.000000e+000 2.500000e+001 0.000000e+000
      endloop
   endfacet
   facet normal 0.000000e+000 0.000000e+000 -1.000000e+000
      outer loop
         vertex 0.000000e+000 2.500000e+001 0.000000e+000
         vertex 5.000000e+000 2.150000e+001 0.000000e+000
         vertex 4.739528e+000 2.147721e+001 0.000000e+000
      endloop
   endfacet
   facet normal 0.000000e+000 0.000000e+000 -1.000000e+000
      outer loop
         vertex 0.000000e+000 2.500000e+001 0.000000e+000
         vertex 4.739528e+000 2.147721e+001 0.000000e+000
         vertex 4.486969e+000 2.140954e+001 0.000000e+000
      endloop
   endfacet
   facet normal -1.000000e+000 0.000000e+000 0.000000e+000
      outer loop
         vertex 0.000000e+000 0.000000e+000 1.000000e+001
         vertex 0.000000e+000 2.500000e+001 1.000000e+001
         vertex 0.000000e+000 0.000000e+000 0.000000e+000
      endloop
   endfacet
   facet normal -1.000000e+000 0.000000e+000 0.000000e+000
      outer loop
         vertex 0.000000e+000 0.000000e+000 0.000000e+000
         vertex 0.000000e+000 2.500000e+001 1.000000e+001
         vertex 0.000000e+000 2.500000e+001 0.000000e+000
      endloop
   endfacet
   facet normal 0.000000e+000 -1.000000e+000 0.000000e+000
      outer loop
         vertex 3.000000e+000 0.000000e+000 1.000000e+001
         vertex 0.000000e+000 0.000000e+000 1.000000e+001
         vertex 3.000000e+000 0.000000e+000 0.000000e+000
      endloop
   endfacet
   facet normal 0.000000e+000 -1.000000e+000 0.000000e+000
      outer loop
         vertex 3.000000e+000 0.000000e+000 0.000000e+000
         vertex 0.000000e+000 0.000000e+000 1.000000e+001
         vertex 0.000000e+000 0.000000e+000 0.000000e+000
      endloop
   endfacet
   facet normal 1.000000e+000 0.000000e+000 0.000000e+000
      outer loop
         vertex 1.000000e+001 2.500000e+001 1.000000e+001
         vertex 1.000000e+001 0.000000e+000 1.000000e+001
         vertex 1.000000e+001 2.500000e+001 0.000000e+000
      endloop
   endfacet
   facet normal 1.000000e+000 0.000000e+000 0.000000e+000
      outer loop
         vertex 1.000000e+001 2.500000e+001 0.000000e+000
         vertex 1.000000e+001 0.000000e+000 1.000000e+001
         vertex 1.000000e+001 0.000000e+000 0.000000e+000
      endloop
   endfacet
   facet normal 0.000000e+000 1.000000e+000 0.000000e+000
      outer loop
         vertex 0.000000e+000 2.500000e+001 1.000000e+001
         vertex 1.000000e+001 2.500000e+001 1.000000e+001
         vertex 0.000000e+000 2.500000e+001 0.000000e+000
      endloop
   endfacet
   facet normal 0.000000e+000 1.000000e+000 0.000000e+000
      outer loop
         vertex 0.000000e+000 2.500000e+001 0.000000e+000
         vertex 1.000000e+001 2.500000e+001 1.000000e+001
         vertex 1.000000e+001 2.500000e+001 0.000000e+000
      endloop
   endfacet
   facet normal 0.000000e+000 1.000000e+000 0.000000e+000
      outer loop
         vertex 6.818654e+000 1.685000e+001 8.000000e+000
         vertex 3.181347e+000 1.685000e+001 8.000000e+000
         vertex 6.818654e+000 1.685000e+001 1.000000e+001
      endloop
   endfacet
   facet normal 0.000000e+000 1.000000e+000 0.000000e+000
      outer loop
         vertex 6.818654e+000 1.685000e+001 1.000000e+001
         vertex 3.181347e+000 1.685000e+001 8.000000e+000
         vertex 3.181347e+000 1.685000e+001 1.000000e+001
      endloop
   endfacet
   facet normal 8.660254e-001 5.000000e-001 0.000000e+000
      outer loop
         vertex 3.181347e+000 1.685000e+001 8.000000e+000
         vertex 1.362693e+000 2.000000e+001 8.000000e+000
         vertex 3.181347e+000 1.685000e+001 1.000000e+001
      endloop
   endfacet
   facet normal 8.660254e-001 5.000000e-001 0.000000e+000
      outer loop
         vertex 3.181347e+000 1.685000e+001 1.000000e+001
         vertex 1.362693e+000 2.000000e+001 8.000000e+000
         vertex 1.362693e+000 2.000000e+001 1.000000e+001
      endloop
   endfacet
   facet normal 8.660254e-001 -5.000000e-001 0.000000e+000
      outer loop
         vertex 1.362693e+000 2.000000e+001 8.000000e+000
         vertex 3.181347e+000 2.315000e+001 8.000000e+000
         vertex 1.362693e+000 2.000000e+001 1.000000e+001
      endloop
   endfacet
   facet normal 8.660254e-001 -5.000000e-001 0.000000e+000
      outer loop
         vertex 1.362693e+000 2.000000e+001 1.000000e+001
         vertex 3.181347e+000 2.315000e+001 8.000000e+000
         vertex 3.181347e+000 2.315000e+001 1.000000e+001
      endloop
   endfacet
   facet normal 0.000000e+000 -1.000000e+000 0.000000e+000
      outer loop
         vertex 3.181347e+000 2.315000e+001 8.000000e+000
         vertex 6.818654e+000 2.315000e+001 8.000000e+000
         vertex 3.181347e+000 2.315000e+001 1.000000e+001
      endloop
   endfacet
   facet normal 0.000000e+000 -1.000000e+000 0.000000e+000
      outer loop
         vertex 3.181347e+000 2.315000e+001 1.000000e+001
         vertex 6.818654e+000 2.315000e+001 8.000000e+000
         vertex 6.818654e+000 2.315000e+001 1.000000e+001
      endloop
   endfacet
   facet normal -8.660254e-001 -5.000000e-001 0.000000e+000
      outer loop
         vertex 6.818654e+000 2.315000e+001 8.000000e+000
         vertex 8.637306e+000 2.000000e+001 8.000000e+000
         vertex 6.818654e+000 2.315000e+001 1.000000e+001
      endloop
   endfacet
   facet normal -8.660254e-001 -5.000000e-001 0.000000e+000
      outer loop
         vertex 6.818654e+000 2.315000e+001 1.000000e+001
         vertex 8.637306e+000 2.000000e+001 8.000000e+000
         vertex 8.637306e+000 2.000000e+001 1.000000e+001
      endloop
   endfacet
   facet normal -8.660254e-001 5.000000e-001 0.000000e+000
      outer loop
         vertex 8.637306e+000 2.000000e+001 8.000000e+000
         vertex 6.818654e+000 1.685000e+001 8.000000e+000
         vertex 8.637306e+000 2.000000e+001 1.000000e+001
      endloop
   endfacet
   facet normal -8.660254e-001 5.000000e-001 0.000000e+000
      outer loop
         vertex 8.637306e+000 2.000000e+001 1.000000e+001
         vertex 6.818654e+000 1.685000e+001 8.000000e+000
         vertex 6.818654e+000 1.685000e+001 1.000000e+001
      endloop
   endfacet
   facet normal 0.000000e+000 0.000000e+000 1.000000e+000
      outer loop
         vertex 6.477211e+000 2.026047e+001 8.000000e+000
         vertex 6.500000e+000 2.000000e+001 8.000000e+000
         vertex 8.637306e+000 2.000000e+001 8.000000e+000
      endloop
   endfacet
   facet normal 0.000000e+000 0.000000e+000 1.000000e+000
      outer loop
         vertex 6.149066e+000 1.903582e+001 8.000000e+000
         vertex 5.964181e+000 1.885093e+001 8.000000e+000
         vertex 6.818654e+000 1.685000e+001 8.000000e+000
      endloop
   endfacet
   facet normal 0.000000e+000 0.000000e+000 1.000000e+000
      outer loop
         vertex 6.818654e+000 1.685000e+001 8.000000e+000
         vertex 5.964181e+000 1.885093e+001 8.000000e+000
         vertex 5.750000e+000 1.870096e+001 8.000000e+000
      endloop
   endfacet
   facet normal 0.000000e+000 0.000000e+000 1.000000e+000
      outer loop
         vertex 6.500000e+000 2.000000e+001 8.000000e+000
         vertex 6.477211e+000 1.973953e+001 8.000000e+000
         vertex 8.637306e+000 2.000000e+001 8.000000e+000
      endloop
   endfacet
   facet normal 0.000000e+000 0.000000e+000 1.000000e+000
      outer loop
         vertex 8.637306e+000 2.000000e+001 8.000000e+000
         vertex 6.477211e+000 1.973953e+001 8.000000e+000
         vertex 6.409539e+000 1.948697e+001 8.000000e+000
      endloop
   endfacet
   facet normal 0.000000e+000 0.000000e+000 1.000000e+000
      outer loop
         vertex 8.637306e+000 2.000000e+001 8.000000e+000
         vertex 6.409539e+000 1.948697e+001 8.000000e+000
         vertex 6.818654e+000 1.685000e+001 8.000000e+000
      endloop
   endfacet
   facet normal 0.000000e+000 0.000000e+000 1.000000e+000
      outer loop
         vertex 6.818654e+000 1.685000e+001 8.000000e+000
         vertex 6.409539e+000 1.948697e+001 8.000000e+000
         vertex 6.299038e+000 1.925000e+001 8.000000e+000
      endloop
   endfacet
   facet normal 0.000000e+000 0.000000e+000 1.000000e+000
      outer loop
         vertex 6.818654e+000 1.685000e+001 8.000000e+000
         vertex 6.299038e+000 1.925000e+001 8.000000e+000
         vertex 6.149066e+000 1.903582e+001 8.000000e+000
      endloop
   endfacet
   facet normal 0.000000e+000 0.000000e+000 1.000000e+000
      outer loop
         vertex 4.739528e+000 1.852279e+001 8.000000e+000
         vertex 4.486969e+000 1.859046e+001 8.000000e+000
         vertex 3.181347e+000 1.685000e+001 8.000000e+000
      endloop
   endfacet
   facet normal 0.000000e+000 0.000000e+000 1.000000e+000
      outer loop
         vertex 3.181347e+000 1.685000e+001 8.000000e+000
         vertex 4.486969e+000 1.859046e+001 8.000000e+000
         vertex 4.250000e+000 1.870096e+001 8.000000e+000
      endloop
   endfacet
   facet normal 0.000000e+000 0.000000e+000 1.000000e+000
      outer loop
         vertex 5.513030e+000 2.140954e+001 8.000000e+000
         vertex 5.750000e+000 2.129904e+001 8.000000e+000
         vertex 6.818654e+000 2.315000e+001 8.000000e+000
      endloop
   endfacet
   facet normal 0.000000e+000 0.000000e+000 1.000000e+000
      outer loop
         vertex 6.818654e+000 2.315000e+001 8.000000e+000
         vertex 5.750000e+000 2.129904e+001 8.000000e+000
         vertex 5.964181e+000 2.114907e+001 8.000000e+000
      endloop
   endfacet
   facet normal 0.000000e+000 0.000000e+000 1.000000e+000
      outer loop
         vertex 5.750000e+000 1.870096e+001 8.000000e+000
         vertex 5.513030e+000 1.859046e+001 8.000000e+000
         vertex 6.818654e+000 1.685000e+001 8.000000e+000
      endloop
   endfacet
   facet normal 0.000000e+000 0.000000e+000 1.000000e+000
      outer loop
         vertex 6.818654e+000 1.685000e+001 8.000000e+000
         vertex 5.513030e+000 1.859046e+001 8.000000e+000
         vertex 5.260472e+000 1.852279e+001 8.000000e+000
      endloop
   endfacet
   facet normal 0.000000e+000 0.000000e+000 1.000000e+000
      outer loop
         vertex 6.818654e+000 1.685000e+001 8.000000e+000
         vertex 5.260472e+000 1.852279e+001 8.000000e+000
         vertex 3.181347e+000 1.685000e+001 8.000000e+000
      endloop
   endfacet
   facet normal 0.000000e+000 0.000000e+000 1.000000e+000
      outer loop
         vertex 3.181347e+000 1.685000e+001 8.000000e+000
         vertex 5.260472e+000 1.852279e+001 8.000000e+000
         vertex 5.000000e+000 1.850000e+001 8.000000e+000
      endloop
   endfacet
   facet normal 0.000000e+000 0.000000e+000 1.000000e+000
      outer loop
         vertex 3.181347e+000 1.685000e+001 8.000000e+000
         vertex 5.000000e+000 1.850000e+001 8.000000e+000
         vertex 4.739528e+000 1.852279e+001 8.000000e+000
      endloop
   endfacet
   facet normal 0.000000e+000 0.000000e+000 1.000000e+000
      outer loop
         vertex 4.250000e+000 1.870096e+001 8.000000e+000
         vertex 4.035819e+000 1.885093e+001 8.000000e+000
         vertex 3.181347e+000 1.685000e+001 8.000000e+000
      endloop
   endfacet
   facet normal 0.000000e+000 0.000000e+000 1.000000e+000
      outer loop
         vertex 3.181347e+000 1.685000e+001 8.000000e+000
         vertex 4.035819e+000 1.885093e+001 8.000000e+000
         vertex 3.850933e+000 1.903582e+001 8.000000e+000
      endloop
   endfacet
   facet normal 0.000000e+000 0.000000e+000 1.000000e+000
      outer loop
         vertex 3.181347e+000 1.685000e+001 8.000000e+000
         vertex 3.850933e+000 1.903582e+001 8.000000e+000
         vertex 1.362693e+000 2.000000e+001 8.000000e+000
      endloop
   endfacet
   facet normal 0.000000e+000 0.000000e+000 1.000000e+000
      outer loop
         vertex 1.362693e+000 2.000000e+001 8.000000e+000
         vertex 3.850933e+000 1.903582e+001 8.000000e+000
         vertex 3.700962e+000 1.925000e+001 8.000000e+000
      endloop
   endfacet
   facet normal 0.000000e+000 0.000000e+000 1.000000e+000
      outer loop
         vertex 3.700962e+000 1.925000e+001 8.000000e+000
         vertex 3.590461e+000 1.948697e+001 8.000000e+000
         vertex 1.362693e+000 2.000000e+001 8.000000e+000
      endloop
   endfacet
   facet normal 0.000000e+000 0.000000e+000 1.000000e+000
      outer loop
         vertex 1.362693e+000 2.000000e+001 8.000000e+000
         vertex 3.590461e+000 1.948697e+001 8.000000e+000
         vertex 3.522789e+000 1.973953e+001 8.000000e+000
      endloop
   endfacet
   facet normal 0.000000e+000 0.000000e+000 1.000000e+000
      outer loop
         vertex 1.362693e+000 2.000000e+001 8.000000e+000
         vertex 3.522789e+000 1.973953e+001 8.000000e+000
         vertex 3.500000e+000 2.000000e+001 8.000000e+000
      endloop
   endfacet
   facet normal 0.000000e+000 0.000000e+000 1.000000e+000
      outer loop
         vertex 4.486969e+000 2.140954e+001 8.000000e+000
         vertex 4.739528e+000 2.147721e+001 8.000000e+000
         vertex 3.181347e+000 2.315000e+001 8.000000e+000
      endloop
   endfacet
   facet normal 0.000000e+000 0.000000e+000 1.000000e+000
      outer loop
         vertex 3.181347e+000 2.315000e+001 8.000000e+000
         vertex 4.739528e+000 2.147721e+001 8.000000e+000
         vertex 5.000000e+000 2.150000e+001 8.000000e+000
      endloop
   endfacet
   facet normal 0.000000e+000 0.000000e+000 1.000000e+000
      outer loop
         vertex 3.181347e+000 2.315000e+001 8.000000e+000
         vertex 5.000000e+000 2.150000e+001 8.000000e+000
         vertex 6.818654e+000 2.315000e+001 8.000000e+000
      endloop
   endfacet
   facet normal 0.000000e+000 0.000000e+000 1.000000e+000
      outer loop
         vertex 6.818654e+000 2.315000e+001 8.000000e+000
         vertex 5.000000e+000 2.150000e+001 8.000000e+000
         vertex 5.260472e+000 2.147721e+001 8.000000e+000
      endloop
   endfacet
   facet normal 0.000000e+000 0.000000e+000 1.000000e+000
      outer loop
         vertex 6.818654e+000 2.315000e+001 8.000000e+000
         vertex 5.260472e+000 2.147721e+001 8.000000e+000
         vertex 5.513030e+000 2.140954e+001 8.000000e+000
      endloop
   endfacet
   facet normal 0.000000e+000 0.000000e+000 1.000000e+000
      outer loop
         vertex 5.964181e+000 2.114907e+001 8.000000e+000
         vertex 6.149066e+000 2.096418e+001 8.000000e+000
         vertex 6.818654e+000 2.315000e+001 8.000000e+000
      endloop
   endfacet
   facet normal 0.000000e+000 0.000000e+000 1.000000e+000
      outer loop
         vertex 6.818654e+000 2.315000e+001 8.000000e+000
         vertex 6.149066e+000 2.096418e+001 8.000000e+000
         vertex 6.299038e+000 2.075000e+001 8.000000e+000
      endloop
   endfacet
   facet normal 0.000000e+000 0.000000e+000 1.000000e+000
      outer loop
         vertex 6.818654e+000 2.315000e+001 8.000000e+000
         vertex 6.299038e+000 2.075000e+001 8.000000e+000
         vertex 8.637306e+000 2.000000e+001 8.000000e+000
      endloop
   endfacet
   facet normal 0.000000e+000 0.000000e+000 1.000000e+000
      outer loop
         vertex 8.637306e+000 2.000000e+001 8.000000e+000
         vertex 6.299038e+000 2.075000e+001 8.000000e+000
         vertex 6.409539e+000 2.051303e+001 8.000000e+000
      endloop
   endfacet
   facet normal 0.000000e+000 0.000000e+000 1.000000e+000
      outer loop
         vertex 8.637306e+000 2.000000e+001 8.000000e+000
         vertex 6.409539e+000 2.051303e+001 8.000000e+000
         vertex 6.477211e+000 2.026047e+001 8.000000e+000
      endloop
   endfacet
   facet normal 0.000000e+000 0.000000e+000 1.000000e+000
      outer loop
         vertex 3.500000e+000 2.000000e+001 8.000000e+000
         vertex 3.522789e+000 2.026047e+001 8.000000e+000
         vertex 1.362693e+000 2.000000e+001 8.000000e+000
      endloop
   endfacet
   facet normal 0.000000e+000 0.000000e+000 1.000000e+000
      outer loop
         vertex 1.362693e+000 2.000000e+001 8.000000e+000
         vertex 3.522789e+000 2.026047e+001 8.000000e+000
         vertex 3.590461e+000 2.051303e+001 8.000000e+000
      endloop
   endfacet
   facet normal 0.000000e+000 0.000000e+000 1.000000e+000
      outer loop
         vertex 1.362693e+000 2.000000e+001 8.000000e+000
         vertex 3.590461e+000 2.051303e+001 8.000000e+000
         vertex 3.181347e+000 2.315000e+001 8.000000e+000
      endloop
   endfacet
   facet normal 0.000000e+000 0.000000e+000 1.000000e+000
      outer loop
         vertex 3.181347e+000 2.315000e+001 8.000000e+000
         vertex 3.590461e+000 2.051303e+001 8.000000e+000
         vertex 3.700962e+000 2.075000e+001 8.000000e+000
      endloop
   endfacet
   facet normal 0.000000e+000 0.000000e+000 1.000000e+000
      outer loop
         vertex 3.181347e+000 2.315000e+001 8.000000e+000
         vertex 3.700962e+000 2.075000e+001 8.000000e+000
         vertex 3.850933e+000 2.096418e+001 8.000000e+000
      endloop
   endfacet
   facet normal 0.000000e+000 0.000000e+000 1.000000e+000
      outer loop
         vertex 3.850933e+000 2.096418e+001 8.000000e+000
         vertex 4.035819e+000 2.114907e+001 8.000000e+000
         vertex 3.181347e+000 2.315000e+001 8.000000e+000
      endloop
   endfacet
   facet normal 0.000000e+000 0.000000e+000 1.000000e+000
      outer loop
         vertex 3.181347e+000 2.315000e+001 8.000000e+000
         vertex 4.035819e+000 2.114907e+001 8.000000e+000
         vertex 4.250000e+000 2.129904e+001 8.000000e+000
      endloop
   endfacet
   facet normal 0.000000e+000 0.000000e+000 1.000000e+000
      outer loop
         vertex 3.181347e+000 2.315000e+001 8.000000e+000
         vertex 4.250000e+000 2.129904e+001 8.000000e+000
         vertex 4.486969e+000 2.140954e+001 8.000000e+000
      endloop
   endfacet
   facet normal -1.000000e+000 0.000000e+000 -3.605768e-016
      outer loop
         vertex 4.050000e+000 1.500000e+001 1.000000e+001
         vertex 4.050000e+000 1.500000e+001 7.594516e+000
         vertex 4.050000e+000 0.000000e+000 1.000000e+001
      endloop
   endfacet
   facet normal -1.000000e+000 0.000000e+000 -3.605768e-016
      outer loop
         vertex 4.050000e+000 0.000000e+000 1.000000e+001
         vertex 4.050000e+000 1.500000e+001 7.594516e+000
         vertex 4.050000e+000 0.000000e+000 7.594516e+000
      endloop
   endfacet
   facet normal -3.420202e-001 0.000000e+000 -9.396927e-001
      outer loop
         vertex 4.050000e+000 1.500000e+001 7.594516e+000
         vertex 5.250000e+000 1.500000e+001 7.157752e+000
         vertex 4.050000e+000 3.469447e-015 7.594516e+000
      endloop
   endfacet
   facet normal -3.420202e-001 0.000000e+000 -9.396927e-001
      outer loop
         vertex 4.050000e+000 3.469447e-015 7.594516e+000
         vertex 5.250000e+000 1.500000e+001 7.157752e+000
         vertex 5.250000e+000 3.469447e-015 7.157752e+000
      endloop
   endfacet
   facet normal -1.000000e+000 0.000000e+000 0.000000e+000
      outer loop
         vertex 5.250000e+000 1.500000e+001 7.157752e+000
         vertex 5.250000e+000 1.500000e+001 5.454963e+000
         vertex 5.250000e+000 0.000000e+000 7.157752e+000
      endloop
   endfacet
   facet normal -1.000000e+000 0.000000e+000 0.000000e+000
      outer loop
         vertex 5.250000e+000 0.000000e+000 7.157752e+000
         vertex 5.250000e+000 1.500000e+001 5.454963e+000
         vertex 5.250000e+000 0.000000e+000 5.454963e+000
      endloop
   endfacet
   facet normal -3.420202e-001 0.000000e+000 9.396927e-001
      outer loop
         vertex 5.250000e+000 1.500000e+001 5.454963e+000
         vertex 4.050000e+000 1.500000e+001 5.018198e+000
         vertex 5.250000e+000 -6.938894e-015 5.454963e+000
      endloop
   endfacet
   facet normal -3.420202e-001 0.000000e+000 9.396927e-001
      outer loop
         vertex 5.250000e+000 -6.938894e-015 5.454963e+000
         vertex 4.050000e+000 1.500000e+001 5.018198e+000
         vertex 4.050000e+000 -6.938894e-015 5.018198e+000
      endloop
   endfacet
   facet normal -1.000000e+000 0.000000e+000 4.766113e-014
      outer loop
         vertex 4.050000e+000 1.500000e+001 5.018198e+000
         vertex 4.050000e+000 1.500000e+001 2.594516e+000
         vertex 4.050000e+000 0.000000e+000 5.018198e+000
      endloop
   endfacet
   facet normal -1.000000e+000 0.000000e+000 4.766113e-014
      outer loop
         vertex 4.050000e+000 0.000000e+000 5.018198e+000
         vertex 4.050000e+000 1.500000e+001 2.594516e+000
         vertex 4.050000e+000 0.000000e+000 2.594516e+000
      endloop
   endfacet
   facet normal -3.420202e-001 0.000000e+000 -9.396927e-001
      outer loop
         vertex 4.050000e+000 1.500000e+001 2.594516e+000
         vertex 5.250000e+000 1.500000e+001 2.157752e+000
         vertex 4.050000e+000 3.469447e-015 2.594516e+000
      endloop
   endfacet
   facet normal -3.420202e-001 0.000000e+000 -9.396927e-001
      outer loop
         vertex 4.050000e+000 3.469447e-015 2.594516e+000
         vertex 5.250000e+000 1.500000e+001 2.157752e+000
         vertex 5.250000e+000 3.469447e-015 2.157752e+000
      endloop
   endfacet
   facet normal -1.000000e+000 0.000000e+000 0.000000e+000
      outer loop
         vertex 5.250000e+000 1.500000e+001 2.157752e+000
         vertex 5.250000e+000 1.500000e+001 0.000000e+000
         vertex 5.250000e+000 0.000000e+000 2.157752e+000
      endloop
   endfacet
   facet normal -1.000000e+000 0.000000e+000 0.000000e+000
      outer loop
         vertex 5.250000e+000 0.000000e+000 2.157752e+000
         vertex 5.250000e+000 1.500000e+001 0.000000e+000
         vertex 5.250000e+000 0.000000e+000 0.000000e+000
      endloop
   endfacet
   facet normal 1.000000e+000 0.000000e+000 1.301043e-016
      outer loop
         vertex 3.000000e+000 1.500000e+001 0.000000e+000
         vertex 3.000000e+000 1.500000e+001 1.000000e+001
         vertex 3.000000e+000 0.000000e+000 0.000000e+000
      endloop
   endfacet
   facet normal 1.000000e+000 0.000000e+000 1.301043e-016
      outer loop
         vertex 3.000000e+000 0.000000e+000 0.000000e+000
         vertex 3.000000e+000 1.500000e+001 1.000000e+001
         vertex 3.000000e+000 0.000000e+000 1.000000e+001
      endloop
   endfacet
   facet normal 0.000000e+000 -1.000000e+000 0.000000e+000
      outer loop
         vertex 4.050000e+000 1.500000e+001 7.594516e+000
         vertex 4.050000e+000 1.500000e+001 1.000000e+001
         vertex 3.000000e+000 1.500000e+001 1.000000e+001
      endloop
   endfacet
   facet normal 0.000000e+000 -1.000000e+000 0.000000e+000
      outer loop
         vertex 4.050000e+000 1.500000e+001 5.018198e+000
         vertex 5.250000e+000 1.500000e+001 5.454963e+000
         vertex 5.250000e+000 1.500000e+001 7.157752e+000
      endloop
   endfacet
   facet normal 0.000000e+000 -1.000000e+000 0.000000e+000
      outer loop
         vertex 5.250000e+000 1.500000e+001 7.157752e+000
         vertex 4.050000e+000 1.500000e+001 7.594516e+000
         vertex 4.050000e+000 1.500000e+001 5.018198e+000
      endloop
   endfacet
   facet normal 0.000000e+000 -1.000000e+000 0.000000e+000
      outer loop
         vertex 4.050000e+000 1.500000e+001 5.018198e+000
         vertex 4.050000e+000 1.500000e+001 7.594516e+000
         vertex 3.000000e+000 1.500000e+001 1.000000e+001
      endloop
   endfacet
   facet normal 0.000000e+000 -1.000000e+000 0.000000e+000
      outer loop
         vertex 4.050000e+000 1.500000e+001 5.018198e+000
         vertex 3.000000e+000 1.500000e+001 1.000000e+001
         vertex 4.050000e+000 1.500000e+001 2.594516e+000
      endloop
   endfacet
   facet normal 0.000000e+000 -1.000000e+000 0.000000e+000
      outer loop
         vertex 4.050000e+000 1.500000e+001 2.594516e+000
         vertex 3.000000e+000 1.500000e+001 1.000000e+001
         vertex 3.000000e+000 1.500000e+001 0.000000e+000
      endloop
   endfacet
   facet normal 0.000000e+000 -1.000000e+000 0.000000e+000
      outer loop
         vertex 4.050000e+000 1.500000e+001 2.594516e+000
         vertex 3.000000e+000 1.500000e+001 0.000000e+000
         vertex 5.250000e+000 1.500000e+001 2.157752e+000
      endloop
   endfacet
   facet normal 0.000000e+000 -1.000000e+000 0.000000e+000
      outer loop
         vertex 5.250000e+000 1.500000e+001 2.157752e+000
         vertex 3.000000e+000 1.500000e+001 0.000000e+000
         vertex 5.250000e+000 1.500000e+001 0.000000e+000
      endloop
   endfacet
endsolid